<?xml version="1.0" standalone="no"?><!DOCTYPE svg PUBLIC "-//W3C//DTD SVG 1.1//EN" "http://www.w3.org/Graphics/SVG/1.1/DTD/svg11.dtd"><svg t="1684164397096" class="icon" viewBox="0 0 1024 1024" version="1.1" xmlns="http://www.w3.org/2000/svg" p-id="1210" xmlns:xlink="http://www.w3.org/1999/xlink" width="200" height="200"><path d="M371.3024 433.9712v360.704c0 14.1312 11.4688 25.6 25.6 25.6s25.6-11.4688 25.6-25.6V433.9712c0-14.1312-11.4688-25.6-25.6-25.6s-25.6 11.4688-25.6 25.6zM613.7856 433.9712v360.704c0 14.1312 11.4688 25.6 25.6 25.6s25.6-11.4688 25.6-25.6V433.9712c0-14.1312-11.4688-25.6-25.6-25.6s-25.6 11.4688-25.6 25.6z" fill="#66b69e" p-id="1211"></path><path d="M928.3584 244.3776h-188.16v-34.3552c0-75.8272-61.696-137.5744-137.5744-137.5744H436.48c-75.8272 0-137.5744 61.696-137.5744 137.5744v34.3552H102.8608c-14.1312 0-25.6 11.4688-25.6 25.6s11.4688 25.6 25.6 25.6h50.176v494.7456c0 98.816 80.384 179.2 179.2 179.2h367.872c98.816 0 179.2-80.384 179.2-179.2v-272.7936c0-14.1312-11.4688-25.6-25.6-25.6s-25.6 11.4688-25.6 25.6v272.7936c0 70.6048-57.3952 128-128 128H332.2368c-70.6048 0-128-57.3952-128-128V295.5776h623.9232V358.912c0 14.1312 11.4688 25.6 25.6 25.6s25.6-11.4688 25.6-25.6V295.5776h49.0496c14.1312 0 25.6-11.4688 25.6-25.6s-11.52-25.6-25.6512-25.6z m-578.2528 0v-34.3552c0-47.616 38.7584-86.3744 86.3744-86.3744h166.2464c47.616 0 86.3744 38.7584 86.3744 86.3744v34.3552H350.1056z" fill="#66b69e" p-id="1212"></path><path d="M853.7088 403.9168c-14.1312 0-25.6 11.4688-25.6 25.6v18.0736c0 14.1312 11.4688 25.6 25.6 25.6s25.6-11.4688 25.6-25.6v-18.0736c0-14.1312-11.4176-25.6-25.6-25.6z" fill="#66b69e" p-id="1213"></path></svg>