<?xml version="1.0" standalone="no"?><!DOCTYPE svg PUBLIC "-//W3C//DTD SVG 1.1//EN" "http://www.w3.org/Graphics/SVG/1.1/DTD/svg11.dtd"><svg t="1679732083954" class="icon" viewBox="0 0 1024 1024" version="1.1" xmlns="http://www.w3.org/2000/svg" p-id="2245" xmlns:xlink="http://www.w3.org/1999/xlink" width="200" height="200"><path d="M256 170.666667a128 128 0 0 0-128 128v213.333333a42.666667 42.666667 0 1 0 85.333333 0V298.666667a42.666667 42.666667 0 0 1 42.666667-42.666667h213.333333a42.666667 42.666667 0 1 0 0-85.333333H256z m512 682.666666a128 128 0 0 0 128-128v-170.666666a42.666667 42.666667 0 1 0-85.333333 0v170.666666a42.666667 42.666667 0 0 1-42.666667 42.666667h-192a42.666667 42.666667 0 1 0 0 85.333333H768z" fill="#e6e6e6" p-id="2246"></path></svg>