<?xml version="1.0" standalone="no"?><!DOCTYPE svg PUBLIC "-//W3C//DTD SVG 1.1//EN" "http://www.w3.org/Graphics/SVG/1.1/DTD/svg11.dtd"><svg t="1679732066793" class="icon" viewBox="0 0 1024 1024" version="1.1" xmlns="http://www.w3.org/2000/svg" p-id="1873" xmlns:xlink="http://www.w3.org/1999/xlink" width="200" height="200"><path d="M883.498667 140.501333a42.666667 42.666667 0 0 1 0 60.330667l-682.666667 682.666667a42.666667 42.666667 0 0 1-60.330667-60.330667l76.117334-76.117333A170.666667 170.666667 0 0 1 128 597.333333v-170.666666a170.666667 170.666667 0 0 1 170.666667-170.666667h27.221333a42.666667 42.666667 0 0 0 27.306667-9.898667l92.202666-76.8c96.469333-80.426667 236.288-31.530667 271.616 77.354667l106.154667-106.154667a42.666667 42.666667 0 0 1 60.330667 0zM640 323.669333V300.373333c0-72.362667-84.394667-111.872-139.946667-65.536l-92.245333 76.8A128 128 0 0 1 325.930667 341.333333H298.666667a85.333333 85.333333 0 0 0-85.333334 85.333334v170.666666a85.333333 85.333333 0 0 0 58.325334 80.981334v0.042666c3.157333 1.28 6.101333 2.858667 8.832 4.778667L640 323.669333z m-194.56 531.072c111.146667 92.586667 279.893333 13.568 279.893333-131.114666v-201.642667a42.666667 42.666667 0 0 0-85.333333 0v201.642667c0 72.32-84.394667 111.872-139.946667 65.536l-46.122666-38.4-0.512 0.512A42.666667 42.666667 0 1 0 395.093333 812.8l50.261334 41.898667z" fill="#e6e6e6" p-id="1874"></path></svg>