<?xml version="1.0" standalone="no"?><!DOCTYPE svg PUBLIC "-//W3C//DTD SVG 1.1//EN" "http://www.w3.org/Graphics/SVG/1.1/DTD/svg11.dtd"><svg t="1679820552524" class="icon" viewBox="0 0 1024 1024" version="1.1" xmlns="http://www.w3.org/2000/svg" p-id="1545" xmlns:xlink="http://www.w3.org/1999/xlink" width="200" height="200"><path d="M768 213.333333H256a85.333333 85.333333 0 0 0-85.333333 85.333334v426.666666a85.333333 85.333333 0 0 0 85.333333 85.333334h170.666667a42.666667 42.666667 0 1 1 0 85.333333H256a170.666667 170.666667 0 0 1-170.666667-170.666667V298.666667a170.666667 170.666667 0 0 1 170.666667-170.666667h512a170.666667 170.666667 0 0 1 170.666667 170.666667v128a42.666667 42.666667 0 1 1-85.333334 0V298.666667a85.333333 85.333333 0 0 0-85.333333-85.333334z m-128 341.333334a128 128 0 0 0-128 128v85.333333a128 128 0 0 0 128 128h170.666667a128 128 0 0 0 128-128v-85.333333a128 128 0 0 0-128-128h-170.666667z" fill="#e6e6e6" p-id="1546"></path></svg>