<?xml version="1.0" standalone="no"?><!DOCTYPE svg PUBLIC "-//W3C//DTD SVG 1.1//EN" "http://www.w3.org/Graphics/SVG/1.1/DTD/svg11.dtd"><svg t="1684150131779" class="icon" viewBox="0 0 1024 1024" version="1.1" xmlns="http://www.w3.org/2000/svg" p-id="4467" width="200" height="200" xmlns:xlink="http://www.w3.org/1999/xlink"><path d="M924 1024H100A100 100 0 0 1 0 924V638a40 40 0 0 1 80 0v286a20 20 0 0 0 20 20h824a20 20 0 0 0 20-20V638a40 40 0 0 1 80 0v286a100 100 0 0 1-100 100zM784 352a40 40 0 0 1-28-12L512 97 268 340a40 40 0 0 1-57-57L484 12a40 40 0 0 1 57 0l271 272a40 40 0 0 1-28 68z" fill="#66b69e" p-id="4468"></path><path d="M512 788a40 40 0 0 1-40-40V57a40 40 0 0 1 80 0v691a40 40 0 0 1-40 40z" fill="#66b69e" p-id="4469"></path></svg>