<?xml version="1.0" standalone="no"?><!DOCTYPE svg PUBLIC "-//W3C//DTD SVG 1.1//EN" "http://www.w3.org/Graphics/SVG/1.1/DTD/svg11.dtd"><svg t="1679732070920" class="icon" viewBox="0 0 1024 1024" version="1.1" xmlns="http://www.w3.org/2000/svg" p-id="2055" xmlns:xlink="http://www.w3.org/1999/xlink" width="200" height="200"><path d="M283.221333 341.333333H256a85.333333 85.333333 0 0 0-85.333333 85.333334v170.666666a85.333333 85.333333 0 0 0 58.325333 80.981334v0.042666a42.666667 42.666667 0 0 1-26.965333 80.896l-1.194667-0.384A170.752 170.752 0 0 1 85.333333 597.333333v-170.666666a170.666667 170.666667 0 0 1 170.666667-170.666667h27.221333a42.666667 42.666667 0 0 0 27.306667-9.898667l92.202667-76.8C513.92 76.586667 682.666667 155.605333 682.666667 300.373333v423.253334c0 144.682667-168.746667 223.744-279.893334 131.114666L352.426667 812.8a42.624 42.624 0 0 1 25.557333-76.842667c11.093333 0 21.205333 4.266667 28.8 11.178667l0.042667-0.085333 50.517333 42.069333c55.552 46.336 139.946667 6.826667 139.946667-65.536V300.373333c0-72.362667-84.394667-111.872-139.946667-65.536l-92.245333 76.8A128 128 0 0 1 283.264 341.333333zM841.386667 269.056a42.666667 42.666667 0 0 0-61.44 59.221333C818.773333 368.64 853.333333 436.266667 853.333333 512s-34.56 143.36-73.386666 183.722667a42.666667 42.666667 0 0 0 61.44 59.221333C893.610667 700.672 938.666667 612.48 938.666667 512s-45.056-188.672-97.28-242.944z" fill="#e6e6e6" p-id="2056"></path></svg>