<?xml version="1.0" standalone="no"?><!DOCTYPE svg PUBLIC "-//W3C//DTD SVG 1.1//EN" "http://www.w3.org/Graphics/SVG/1.1/DTD/svg11.dtd"><svg t="1679820594745" class="icon" viewBox="0 0 1024 1024" version="1.1" xmlns="http://www.w3.org/2000/svg" p-id="1963" xmlns:xlink="http://www.w3.org/1999/xlink" width="200" height="200"><path d="M557.312 85.333333a42.666667 42.666667 0 0 1 38.186667 23.637334l38.912 78.037333c5.973333 2.261333 11.818667 4.693333 17.664 7.296l80.554666-26.837333a42.666667 42.666667 0 0 1 43.648 10.325333l64.042667 64.042667a42.666667 42.666667 0 0 1 10.325333 43.648l-25.386666 76.416c4.138667 8.832 7.936 17.877333 11.306666 27.008l78.549334 39.424a42.666667 42.666667 0 0 1 23.552 38.144v90.88a42.666667 42.666667 0 0 1-23.552 38.144l-77.994667 39.125333c-3.626667 9.386667-7.68 18.645333-12.16 27.733333l24.234667 73.941334a42.666667 42.666667 0 0 1-10.112 43.178666l-62.890667 63.957334a42.666667 42.666667 0 0 1-44.117333 10.496l-76.416-25.898667a342.485333 342.485333 0 0 1-29.610667 12.16l-36.693333 74.666667a42.666667 42.666667 0 0 1-38.272 23.808h-88.746667a42.666667 42.666667 0 0 1-38.272-23.850667l-39.168-79.616a346.069333 346.069333 0 0 1-15.232-6.485333l-79.189333 26.88a42.666667 42.666667 0 0 1-44.117334-10.538667l-62.293333-63.274667a42.666667 42.666667 0 0 1-10.069333-43.221333l25.045333-76.458667a344.746667 344.746667 0 0 1-12.074667-27.434666l-78.08-39.168A42.666667 42.666667 0 0 1 85.333333 557.354667v-90.88a42.666667 42.666667 0 0 1 23.552-38.144l78.506667-39.381334c3.413333-9.258667 7.210667-18.346667 11.392-27.264L173.226667 284.928a42.666667 42.666667 0 0 1 10.325333-43.605333L246.997333 177.92a42.666667 42.666667 0 0 1 43.648-10.325333l80.853334 26.965333c5.973333-2.688 11.989333-5.205333 18.090666-7.552l38.954667-78.08A42.666667 42.666667 0 0 1 466.773333 85.333333h90.581334z m-15.104 85.333334h-60.416l-41.557333 83.285333-21.845334 8.405333-6.954666 2.816-6.869334 2.986667-21.504 9.685333-86.698666-28.928-42.112 42.154667 27.690666 83.242667-10.197333 21.76c-2.133333 4.565333-4.138667 9.173333-6.016 13.866666l-2.730667 7.04-8.234666 22.357334L170.666667 481.536v60.757333l83.2 41.685334 8.362666 21.632c1.877333 4.778667 3.84 9.472 5.973334 14.122666l3.285333 6.912 10.88 22.058667-27.477333 83.669333 41.173333 41.898667 85.162667-28.885333 21.632 9.813333 5.845333 2.56 5.888 2.432 21.589333 8.533333 41.6 84.608h58.453334l39.850666-80.938666 22.954667-8.234667c5.12-1.834667 10.24-3.84 15.232-5.973333l7.466667-3.328 21.888-10.24 82.901333 28.074666 41.813333-42.496-26.666666-81.28 10.837333-22.016c2.304-4.650667 4.437333-9.344 6.4-14.08l2.944-7.168 8.362667-21.632L853.333333 542.293333v-60.757333l-84.053333-42.197333-8.277333-22.229334a266.666667 266.666667 0 0 0-5.589334-13.909333l-3.114666-6.826667-10.24-21.76 27.605333-83.072-42.752-42.752-86.272 28.757334-21.418667-9.557334-6.741333-2.901333-6.826667-2.730667-21.888-8.362666L542.208 170.666667zM512 341.333333a170.666667 170.666667 0 1 1 0 341.333334 170.666667 170.666667 0 0 1 0-341.333334z m0 85.333334a85.333333 85.333333 0 1 0 0 170.666666 85.333333 85.333333 0 0 0 0-170.666666z" fill="#e6e6e6" opacity=".9" p-id="1964"></path></svg>