<svg version="1.1" id="Layer_1" xmlns="http://www.w3.org/2000/svg" x="0" y="0" viewBox="0 0 64 64" style="enable-background:new 0 0 64 64" xml:space="preserve"><style>.st0{fill:#BD00FF}</style><path class="st0" d="M39.8 32c0 4.3-3.5 7.8-7.8 7.8s-7.8-3.5-7.8-7.8 3.5-7.8 7.8-7.8 7.8 3.5 7.8 7.8zm.7-16.1c6.2-3.9 14.9-5.4 14.9-5.4-3.1-1.3-6.6-1.9-10.1-1.9-9.9 0-30.7 5-31.5 22.4v1.1c0 7 3.9 13 9.7 16.1-6.2 3.8-14.9 5.3-14.9 5.3 3.1 1.3 6.6 1.9 10.1 1.9 9.9 0 30.7-5 31.5-22.4v-1.1c0-6.9-3.9-12.9-9.7-16z"/><circle class="st0" cx="31.6" cy="32.6" r="9.2"/><path d="M26.2 37.2c-.5-.6-1-1.3-1.3-2-3.1-5.1-4.9-11.1-5-17.6-3.5 3.3-5.9 7.6-6.1 13.3V32c0 7 3.9 13 9.7 16.1-6.2 3.9-14.9 5.4-14.9 5.4 3.1 1.3 6.6 1.9 10.1 1.9 5.7 0 15.1-1.7 22.1-6.5-5.9-2.5-10.9-6.6-14.6-11.7z" style="opacity:0.15;fill:#2E4369"/></svg>